<?xml version="1.0"?>
<svg x="0" y="0" width="405.0" height="630.0">
  <rect x="0" y="0" width="405.0" height="630.0" style="fill:#ffffe6;"/>
  <text x="45.0" y="45.0" style="fill:black;font-size:32px;font-weight:bold;">switch_reset</text>
  <rect x="180.0" y="360.0" width="90.0" height="90.0" rx="12.0" ry="12.0" style="fill:none;stroke:black;stroke-width:1;"/>
  <text x="185.0" y="375.0" style="fill:black;font-size:16px;font-weight:bold;">on</text>
  <rect x="135.0" y="270.0" width="180.0" height="270.0" rx="12.0" ry="12.0" style="fill:none;stroke:black;stroke-width:1;"/>
  <text x="140.0" y="285.0" style="fill:black;font-size:16px;font-weight:bold;">off</text>
  <rect x="90.0" y="225.0" width="270.0" height="360.0" rx="12.0" ry="12.0" style="fill:none;stroke:black;stroke-width:1;"/>
  <text x="95.0" y="240.0" style="fill:black;font-size:16px;font-weight:bold;">switch</text>
  <line x1="315.0" y1="337.5" x2="360.0" y2="337.5" style="stroke:black;stroke-width:1;"/>
  <text x="323.0" y="333.5" style="fill:black;font-size:14px;text-anchor:start;">RESET</text>
  <line x1="352.5" y1="330.0" x2="360.0" y2="337.5" style="stroke:black;stroke-width:1;"/>
  <line x1="360.0" y1="337.5" x2="352.5" y2="345.0" style="stroke:black;stroke-width:1;"/>
  <line x1="225.0" y1="450.0" x2="225.0" y2="585.0" style="stroke:black;stroke-width:1;"/>
  <text x="229.0" y="458.0" style="fill:black;font-size:14px;text-anchor:start;" transform="rotate(90 229.0 458.0)">TURN</text>
  <line x1="217.5" y1="577.5" x2="225.0" y2="585.0" style="stroke:black;stroke-width:1;"/>
  <line x1="225.0" y1="585.0" x2="232.5" y2="577.5" style="stroke:black;stroke-width:1;"/>
  <line x1="247.5" y1="135.0" x2="247.5" y2="225.0" style="stroke:black;stroke-width:1;"/>
  <line x1="240.0" y1="217.5" x2="247.5" y2="225.0" style="stroke:black;stroke-width:1;"/>
  <line x1="247.5" y1="225.0" x2="255.0" y2="217.5" style="stroke:black;stroke-width:1;"/>
  <circle cx="247.5" cy="135.0" r="5.625" style="fill:black;"/>
  <line x1="180.0" y1="135.0" x2="180.0" y2="270.0" style="stroke:black;stroke-width:1;"/>
  <line x1="172.5" y1="262.5" x2="180.0" y2="270.0" style="stroke:black;stroke-width:1;"/>
  <line x1="180.0" y1="270.0" x2="187.5" y2="262.5" style="stroke:black;stroke-width:1;"/>
  <circle cx="180.0" cy="135.0" r="5.625" style="fill:black;"/>
  <line x1="225.0" y1="270.0" x2="225.0" y2="360.0" style="stroke:black;stroke-width:1;"/>
  <text x="229.0" y="278.0" style="fill:black;font-size:14px;text-anchor:start;" transform="rotate(90 229.0 278.0)">TURN</text>
  <line x1="217.5" y1="352.5" x2="225.0" y2="360.0" style="stroke:black;stroke-width:1;"/>
  <line x1="225.0" y1="360.0" x2="232.5" y2="352.5" style="stroke:black;stroke-width:1;"/>
</svg>